<svg width="423" height="197" viewBox="0 0 423 197" fill="none" xmlns="http://www.w3.org/2000/svg">
<path d="M8.02151 19.3509C5.98414 72.9184 9.55651 136.443 17.452 189.484L256.5 184L337 189.484L377.5 186L401.326 182.026C405.789 158.029 407.349 133.612 408.898 109.265L411.968 61.0654L415.5 7.5C369 27 309 15 254.5 8.5C179.5 8.5 83.5 32.5 8.02151 19.3509Z" fill="#FFF06E" stroke="#FFF06E" stroke-width="13.5815" stroke-miterlimit="10" stroke-linecap="round" stroke-linejoin="round"/>
<path d="M36.9494 170.482L66.7704 169.361L59.2349 141.743C56.4523 151.407 43.0866 162.453 36.9494 170.482Z" fill="#FFF06E" stroke="#FFF06E" stroke-width="13.5815" stroke-miterlimit="10" stroke-linecap="round" stroke-linejoin="round"/>
<path d="M170.26 131.702L155.799 170.497H153.039L167.474 131.702H170.26ZM198.786 170.497L192.47 151.206C192.064 149.897 191.542 147.977 190.905 145.448H190.746L190.188 147.411L188.994 151.259L182.573 170.497H179.972L171.72 141.653H174.533L179.15 158.37C180.229 162.51 180.936 165.552 181.273 167.498H181.432C182.475 163.359 183.236 160.608 183.714 159.246L189.658 141.653H192.046L197.698 159.193C198.971 163.35 199.75 166.101 200.033 167.445H200.192C200.334 166.295 201.041 163.217 202.315 158.211L206.72 141.653H209.373L201.545 170.497H198.786ZM226.701 171.028C222.508 171.028 219.235 169.736 216.883 167.153C214.548 164.571 213.38 160.953 213.38 156.301C213.38 151.701 214.512 148.022 216.777 145.262C219.041 142.485 222.092 141.096 225.931 141.096C229.328 141.096 232.008 142.281 233.971 144.652C235.935 147.022 236.917 150.242 236.917 154.31V156.433H216.14C216.175 160.396 217.095 163.421 218.899 165.508C220.721 167.596 223.322 168.639 226.701 168.639C228.346 168.639 229.788 168.524 231.026 168.294C232.282 168.064 233.865 167.569 235.776 166.808V169.197C234.148 169.904 232.645 170.382 231.265 170.63C229.885 170.895 228.364 171.028 226.701 171.028ZM225.931 143.431C223.154 143.431 220.925 144.351 219.244 146.191C217.564 148.013 216.582 150.649 216.299 154.098H234.131C234.131 150.755 233.405 148.145 231.955 146.27C230.504 144.377 228.496 143.431 225.931 143.431ZM256.526 171.028C252.334 171.028 249.061 169.736 246.708 167.153C244.373 164.571 243.206 160.953 243.206 156.301C243.206 151.701 244.338 148.022 246.602 145.262C248.866 142.485 251.918 141.096 255.757 141.096C259.153 141.096 261.833 142.281 263.797 144.652C265.76 147.022 266.742 150.242 266.742 154.31V156.433H245.965C246.001 160.396 246.92 163.421 248.725 165.508C250.547 167.596 253.147 168.639 256.526 168.639C258.171 168.639 259.613 168.524 260.851 168.294C262.107 168.064 263.691 167.569 265.601 166.808V169.197C263.974 169.904 262.47 170.382 261.09 170.63C259.71 170.895 258.189 171.028 256.526 171.028ZM255.757 143.431C252.979 143.431 250.75 144.351 249.07 146.191C247.389 148.013 246.407 150.649 246.124 154.098H263.956C263.956 150.755 263.231 148.145 261.78 146.27C260.33 144.377 258.322 143.431 255.757 143.431ZM277.277 157.84L292.004 141.653H295.188L283.831 153.965L296.17 170.497H293.012L282.053 155.929L277.33 160.228V170.497H274.703V129.208H277.33V149.906L277.144 157.84H277.277Z" fill="#404040"/>
<rect x="25.5732" y="67.1715" width="65.4998" height="6.70423" transform="rotate(-21.8487 25.5732 67.1715)" fill="#FF7A64"/>
<rect x="30.0296" y="66.3092" width="61.5089" height="6.70423" transform="rotate(9.86731 30.0296 66.3092)" fill="#FF7A64"/>
<rect x="28.9559" y="100.936" width="67.2588" height="6.70423" transform="rotate(-21.1577 28.9559 100.936)" fill="#FF7A64"/>
<rect x="57.0328" y="123.114" width="91.8929" height="6.70423" transform="rotate(-93.6429 57.0328 123.114)" fill="#FF7A64"/>
<path d="M18 185L52 183.712L43.4117 152C40.236 163.097 24.9973 175.781 18 185V185Z" fill="#FF7A64" stroke="#FF7A64" stroke-width="2.999" stroke-miterlimit="10" stroke-linecap="round" stroke-linejoin="round"/>
</svg>
